<?xml version="1.0" encoding="iso-8859-1"?>
<!-- Generator: Adobe Illustrator 19.0.0, SVG Export Plug-In . SVG Version: 6.00 Build 0)  -->
<svg version="1.1" id="Capa_1" xmlns="http://www.w3.org/2000/svg" xmlns:xlink="http://www.w3.org/1999/xlink" x="0px" y="0px"
	 viewBox="0 0 416 416" style="enable-background:new 0 0 416 416;" xml:space="preserve">
<path style="fill:#FFDC69;" d="M320,8H120c-17.672,0-32,14.328-32,32v8H40C22.328,48,8,62.328,8,80v40c0,17.672,14.328,32,32,32h48
	v56v104v32c0,17.68,14.32,32,32,32h24h24c0,17.672,14.328,32,32,32h96c17.672,0,32-14.328,32-32h24h24c17.672,0,32-14.328,32-32V96
	v-8L328,8H320z M280,80c0-17.672-14.328-32-32-32C265.68,48,280,62.32,280,80z M280,120c0,17.68-14.32,32-32,32
	C265.672,152,280,137.672,280,120z"/>
<path style="fill:#FFB855;" d="M328,8h-8v56c0,17.672,14.328,32,32,32h56v-8L328,8z"/>
<path style="fill:#FF8C5A;" d="M280,80v40c0,17.672-14.328,32-32,32H40c-17.672,0-32-14.328-32-32V80c0-17.672,14.328-32,32-32h208
	C265.672,48,280,62.328,280,80z"/>
<path style="fill:#FEEC9F;" d="M296,408h-96c-17.672,0-32-14.328-32-32v-80c0-17.672,14.328-32,32-32h96c17.672,0,32,14.328,32,32
	v80C328,393.672,313.672,408,296,408z"/>
<path d="M75.376,111.136c0-5.496-1.168-13.904-1.832-19.312h0.336l4.328,12.656l7.496,18.232h5.328l7.496-18.232l4.504-12.656h0.328
	c-0.664,5.408-1.832,13.816-1.832,19.312v15.984h13.32V73.008h-14.824l-8.16,22.48l-3,8.824h-0.336l-2.992-8.824l-8.496-22.48
	H62.216v54.112h13.16L75.376,111.136L75.376,111.136z"/>
<path d="M141.104,109.976h6.656c11.328,0,21.648-5.744,21.648-18.984c0-13.656-9.992-17.984-21.648-17.984h-20.976v54.112h14.32
	V109.976z M141.104,84.328h5.992c5.328,0,8.328,1.832,8.328,6.664s-2.664,7.664-8.328,7.664h-5.992V84.328z"/>
<path d="M191.184,116.632c-3.752,0-7.576-2-10.824-5l-6.504,8.992c4,4.664,10.24,7.496,18.824,7.496
	c10.984,0,20.48-5.496,20.48-15.488c0-6.664-4.168-10.824-10.16-12.656V99.64c5.664-2.496,8.496-6.328,8.496-11.408
	c0-9.576-7.496-14.904-19.152-14.904c-6.496,0-11.984,2.504-17.152,6.832l7.16,8.656c3.336-2.832,5.832-4.328,9.328-4.328
	c3.576,0,5.496,1.664,5.496,4.832c0,3.664-2.664,6-11.488,6v9.992c11.072,0,13.152,2.336,13.152,6.328
	C198.84,114.968,195.848,116.632,191.184,116.632z"/>
<rect x="32" y="112" width="16" height="16"/>
<path d="M333.656,2.344C332.16,0.84,330.128,0,328,0h-8H120C97.944,0,80,17.944,80,40H40C17.944,40,0,57.944,0,80v40
	c0,22.056,17.944,40,40,40h40v184c0,22.056,17.944,40,40,40h24c4.424,0,8-3.584,8-8s-3.576-8-8-8h-24c-13.232,0-24-10.768-24-24V160
	h152c22.056,0,40-17.944,40-40V80c0-22.056-17.944-40-40-40H96c0-13.232,10.768-24,24-24h192v48c0,22.056,17.944,40,40,40h48v240
	c0,13.232-10.768,24-24,24h-24c-4.424,0-8,3.584-8,8s3.576,8,8,8h24c22.056,0,40-17.944,40-40V96v-8c0-2.12-0.84-4.16-2.344-5.656
	L333.656,2.344z M248,56c13.232,0,24,10.768,24,24v40c0,13.232-10.768,24-24,24H40c-13.232,0-24-10.768-24-24V80
	c0-13.232,10.768-24,24-24H248z M352,88c-13.232,0-24-10.768-24-24V19.312L396.688,88H352z"/>
<path d="M296,416c22.056,0,40-17.944,40-40v-80c0-22.056-17.944-40-40-40h-96c-22.056,0-40,17.944-40,40v80
	c0,22.056,17.944,40,40,40H296z M176,376v-80c0-13.232,10.768-24,24-24h96c13.232,0,24,10.768,24,24v80c0,13.232-10.768,24-24,24
	h-96C186.768,400,176,389.232,176,376z"/>
<polygon points="240,325.416 264,315.816 264,352 256,352 256,368 280,368 280,292.184 224,314.584 224,360 216,360 216,376 
	240,376 "/>
<g>
</g>
<g>
</g>
<g>
</g>
<g>
</g>
<g>
</g>
<g>
</g>
<g>
</g>
<g>
</g>
<g>
</g>
<g>
</g>
<g>
</g>
<g>
</g>
<g>
</g>
<g>
</g>
<g>
</g>
</svg>
