<?xml version="1.0" encoding="iso-8859-1"?>
<!-- Generator: Adobe Illustrator 19.0.0, SVG Export Plug-In . SVG Version: 6.00 Build 0)  -->
<svg version="1.1" id="Capa_1" xmlns="http://www.w3.org/2000/svg" xmlns:xlink="http://www.w3.org/1999/xlink" x="0px" y="0px"
	 viewBox="0 0 464 464" style="enable-background:new 0 0 464 464;" xml:space="preserve">
<polygon style="fill:#FFDC69;" points="344,8 112,8 112,16 112,48 32,48 32,152 112,152 112,184 112,456 224,456 320,456 432,456 
	432,96 432,88 352,8 "/>
<polygon style="fill:#FFB855;" points="352,8 344,8 344,96 432,96 432,88 "/>
<rect x="32" y="48" style="fill:#FF8C5A;" width="272" height="104"/>
<rect x="224" y="296" style="fill:#FEEC9F;" width="96" height="160"/>
<polygon style="fill:#FFFFFF;" points="248,256 248,200 288,232 "/>
<path d="M109.024,128.12c14.984,0,25.144-10.496,25.144-28.304c0-17.736-10.16-27.808-25.144-27.808S83.88,82,83.88,99.816
	C83.888,117.632,94.04,128.12,109.024,128.12z M109.024,84.328c6.496,0,10.496,5.664,10.496,15.488s-4,15.984-10.496,15.984
	s-10.488-6.168-10.488-15.984C98.536,89.992,102.536,84.328,109.024,84.328z"/>
<path d="M168.432,128.12c7.664,0,14.656-3.336,18.648-6.664V95.648h-20.648v11.656h7.992v7.496c-1,0.664-2.664,1-4.16,1
	c-9.656,0-14.152-5.664-14.152-15.824c0-9.824,5.496-15.656,12.824-15.656c4.328,0,6.664,1.336,9.328,3.664l7.824-8.824
	c-3.832-3.832-9.656-7.16-17.32-7.16c-14.816,0-27.304,10.328-27.304,28.472C141.464,118.96,153.616,128.12,168.432,128.12z"/>
<path d="M222.176,128.12c7.664,0,14.656-3.336,18.648-6.664V95.648h-20.648v11.656h7.992v7.496c-1,0.664-2.664,1-4.168,1
	c-9.656,0-14.152-5.664-14.152-15.824c0-9.824,5.496-15.656,12.824-15.656c4.328,0,6.664,1.336,9.328,3.664l7.824-8.824
	c-3.832-3.832-9.656-7.16-17.32-7.16c-14.816,0-27.304,10.328-27.304,28.472C195.208,118.96,207.36,128.12,222.176,128.12z"/>
<path d="M301.984,232.944L240,183.352v86.776L301.984,232.944z M256,216.648l18.016,14.416L256,241.872V216.648z"/>
<path d="M312,40H24v120h288V40z M296,144H40V56h256V144z"/>
<rect x="56" y="112" width="16" height="16"/>
<path d="M336,0H104v16h232v88h88v344h-96V288H216v160h-96V184h-16v280h112h112h112V104V84.688L355.312,0H336z M312,448h-80V304h80
	V448z M352,88V19.312L420.688,88H352z"/>
<rect x="344" y="336" width="40" height="16"/>
<rect x="360" y="368" width="16" height="16"/>
<rect x="392" y="368" width="16" height="16"/>
<rect x="344" y="400" width="56" height="16"/>
<rect x="160" y="368" width="40" height="16"/>
<rect x="168" y="336" width="16" height="16"/>
<rect x="136" y="336" width="16" height="16"/>
<rect x="144" y="304" width="56" height="16"/>
<rect x="328" y="224" width="56" height="16"/>
<rect x="160" y="224" width="56" height="16"/>
<rect x="352" y="256" width="16" height="16"/>
<rect x="384" y="256" width="24" height="16"/>
<rect x="136" y="256" width="16" height="16"/>
<rect x="168" y="256" width="24" height="16"/>
<polygon points="272,364.28 280,358.952 280,376 296,376 296,329.048 256,355.72 256,400 248,400 248,416 272,416 "/>
<g>
</g>
<g>
</g>
<g>
</g>
<g>
</g>
<g>
</g>
<g>
</g>
<g>
</g>
<g>
</g>
<g>
</g>
<g>
</g>
<g>
</g>
<g>
</g>
<g>
</g>
<g>
</g>
<g>
</g>
</svg>
