<?xml version="1.0" encoding="UTF-8" standalone="no"?>
<svg
   xmlns:dc="http://purl.org/dc/elements/1.1/"
   xmlns:cc="http://creativecommons.org/ns#"
   xmlns:rdf="http://www.w3.org/1999/02/22-rdf-syntax-ns#"
   xmlns:svg="http://www.w3.org/2000/svg"
   xmlns="http://www.w3.org/2000/svg"
   id="svg30"
   version="1.1"
   width="16"
   viewBox="0 0 512 512.00018"
   height="16">
  <metadata
     id="metadata36">
    <rdf:RDF>
      <cc:Work
         rdf:about="">
        <dc:format>image/svg+xml</dc:format>
        <dc:type
           rdf:resource="http://purl.org/dc/dcmitype/StillImage" />
      </cc:Work>
    </rdf:RDF>
  </metadata>
  <defs
     id="defs34" />
  <path
     id="path2"
     fill="#0377bc"
     d="m447.828125 353.023438c-3.246094 4.511718-8.21875 7.476562-13.734375 8.1875-5.511719.710937-11.074219-.890626-15.363281-4.433594-1.566407-1.183594-2.921875-2.628906-4.011719-4.265625h-.085938c-4.75-6.953125-4.714843-16.121094.085938-23.039063 27.820312-40.363281 53.503906-96.34375 25.34375-143.105468-11.007812-18.175782-29.011719-27.476563-45.824219-37.632813-.167969-.082031-.253906-.167969-.425781-.253906-6.917969-4.398438-15.949219-3.480469-21.84375 2.21875-3.269531 3.179687-5.085938 7.558593-5.035156 12.117187v255.316406c0 2.851563-.167969 5.703126-.511719 8.535157-5.121094 43.09375-48.8125 76.800781-101.886719 76.800781-4.277344-.011719-8.550781-.238281-12.800781-.683594-50.519531-5.207031-89.601563-41.132812-89.601563-84.652344 0-43.519531 39.082032-79.445312 89.6875-84.648437 4.222657-.445313 8.464844-.671875 12.714844-.683594 8.605469-.015625 17.1875.902344 25.597656 2.730469 8.863282 1.828125 17.460938 4.75 25.601563 8.703125v-308.648437c-.023437-9.5625 4.875-18.460938 12.96875-23.554688 3.25-2.003906 6.941406-3.179688 10.753906-3.414062 7.425781-.59375 14.734375 2.121093 19.96875 7.425781 4.144531 4.152343 6.734375 9.605469 7.335938 15.445312 3.03125 27.488281 19.492187 51.6875 43.949219 64.597657 26.792968 14.761718 55.636718 28.332031 73.128906 54.785156 43.691406 65.707031 6.65625 143.957031-36.011719 202.152344zm0 0" />
  <path
     id="path4"
     fill="#02a9f4"
     d="m422.230469 353.023438c-1.007813 1.390624-2.183594 2.652343-3.5 3.753906-1.566407-1.183594-2.921875-2.628906-4.011719-4.265625h-.085938c-4.75-6.953125-4.714843-16.121094.085938-23.039063 27.820312-40.363281 53.503906-96.34375 25.34375-143.105468-11.007812-18.175782-29.011719-27.476563-45.824219-37.632813-.167969-.082031-.253906-.167969-.425781-.253906-6.917969-4.398438-15.949219-3.480469-21.84375 2.21875-1.109375-.597657-2.21875-1.28125-3.328125-1.964844-.171875-.082031-.257813-.167969-.425781-.253906-5.308594-3.484375-12.09375-3.792969-17.695313-.808594-5.601562 2.988281-9.125 8.796875-9.1875 15.144531v255.316406c.003907 2.851563-.167969 5.703126-.511719 8.535157-4.691406 39.59375-41.898437 71.253906-89.085937 76.117187-50.519531-5.207031-89.601563-41.132812-89.601563-84.652344 0-43.519531 39.082032-79.445312 89.6875-84.648437 13.292969 1.34375 26.257813 4.984375 38.3125 10.75v-8.703125c8.863282 1.828125 17.460938 4.75 25.601563 8.703125v-308.648437c-.023437-9.5625 4.875-18.460938 12.96875-23.554688 1.871094 1.117188 3.589844 2.464844 5.121094 4.011719 4.148437 4.152343 6.738281 9.605469 7.339843 15.445312 3.027344 27.488281 19.488282 51.6875 43.945313 64.597657 26.792969 14.761718 55.636719 28.332031 73.128906 54.785156 43.691407 65.707031 6.65625 143.957031-36.007812 202.152344zm0 0" />
  <g
     id="g12"
     fill="#ad1457">
    <path
       id="path6"
       d="m17.066406 34.132812h256c4.714844 0 8.535156 3.820313 8.535156 8.535157v42.664062c0 4.714844-3.820312 8.535157-8.535156 8.535157h-256c-4.710937 0-8.53125-3.820313-8.53125-8.535157v-42.664062c0-4.714844 3.820313-8.535157 8.53125-8.535157zm0 0" />
    <path
       id="path8"
       d="m17.066406 136.535156h256c4.714844 0 8.535156 3.820313 8.535156 8.53125v42.667969c0 4.710937-3.820312 8.53125-8.535156 8.53125h-256c-4.710937 0-8.53125-3.820313-8.53125-8.53125v-42.667969c0-4.710937 3.820313-8.53125 8.53125-8.53125zm0 0" />
    <path
       id="path10"
       d="m17.066406 238.933594h256c4.714844 0 8.535156 3.820312 8.535156 8.535156v42.664062c0 4.714844-3.820312 8.535157-8.535156 8.535157h-256c-4.710937 0-8.53125-3.820313-8.53125-8.535157v-42.664062c0-4.714844 3.820313-8.535156 8.53125-8.535156zm0 0" />
  </g>
  <path
     id="path14"
     fill="#e91e63"
     d="m17.066406 34.132812h230.398438c4.714844 0 8.535156 3.820313 8.535156 8.535157v42.664062c0 4.714844-3.820312 8.535157-8.535156 8.535157h-230.398438c-4.710937 0-8.53125-3.820313-8.53125-8.535157v-42.664062c0-4.714844 3.820313-8.535157 8.53125-8.535157zm0 0" />
  <path
     id="path16"
     fill="#e91e63"
     d="m17.066406 136.535156h230.398438c4.714844 0 8.535156 3.820313 8.535156 8.53125v42.667969c0 4.710937-3.820312 8.53125-8.535156 8.53125h-230.398438c-4.710937 0-8.53125-3.820313-8.53125-8.53125v-42.667969c0-4.710937 3.820313-8.53125 8.53125-8.53125zm0 0" />
  <path
     id="path18"
     fill="#e91e63"
     d="m17.066406 238.933594h230.398438c4.714844 0 8.535156 3.820312 8.535156 8.535156v42.664062c0 4.714844-3.820312 8.535157-8.535156 8.535157h-230.398438c-4.710937 0-8.53125-3.820313-8.53125-8.535157v-42.664062c0-4.714844 3.820313-8.535156 8.53125-8.535156zm0 0" />
  <path
     id="path20"
     d="m264.554688 512c-61.171876 0-110.933594-42.109375-110.933594-93.867188 0-51.757812 49.761718-93.867187 110.933594-93.867187 14.527343-.019531 28.949218 2.414063 42.664062 7.203125v-295.894531c-.3125-18.269531 13.460938-33.714844 31.648438-35.4843752 18.398437-1.3398438 34.53125 12.1953122 36.40625 30.5507812l.027343.316406c2.898438 24.539063 17.671875 46.085938 39.515625 57.632813l8.730469 4.761718c24.898437 13.488282 50.652344 27.441407 67.429687 52.804688 37.058594 55.734375 24.527344 129.019531-36.242187 211.910156-5.378906 7.398438-13.957031 11.796875-23.105469 11.84375-9.144531.046875-17.769531-4.261718-23.222656-11.601562-.28125-.292969-.539062-.605469-.769531-.9375-6.75-9.886719-6.714844-22.902344.085937-32.75 25.714844-37.316406 50.941406-90.84375 25.050782-133.851563-8.714844-14.375-22.664063-22.667969-37.433594-31.441406l-5.496094-3.292969c-2.957031-2.085937-6.835938-2.339844-10.039062-.648437-2.71875 1.480469-4.382813 4.355469-4.320313 7.449219v255.296874c.003906 3.195313-.1875 6.386719-.574219 9.558594-5.707031 48.058594-53.152344 84.308594-110.355468 84.308594zm0-170.667969c-51.757813 0-93.867188 34.453125-93.867188 76.800781 0 42.351563 42.109375 76.800782 93.867188 76.800782 48.5625 0 88.71875-29.78125 93.410156-69.273438.304687-2.5.457031-5.011718.457031-7.527344v-255.300781c-.085937-9.292969 4.9375-17.882812 13.082031-22.367187 8.410156-4.625 18.664063-4.339844 26.804688.742187l5.753906 3.445313c17.386719 8.523437 32.304688 21.363281 43.320312 37.289062 24.222657 40.234375 15.359376 92.90625-25.617187 152.375-2.617187 3.761719-2.820313 8.699219-.523437 12.667969.195312.222656.375.464844.546874.707031 2.125 3.179688 5.683594 5.105469 9.511719 5.148438 3.84375.195312 7.507813-1.644532 9.652344-4.839844 56.980469-77.726562 69.019531-142.449219 35.800781-192.410156-14.4375-21.824219-38.277344-34.742188-61.339844-47.238282l-8.800781-4.792968c-27-14.238282-45.125-40.996094-48.332031-71.351563-.425781-3.832031-2.140625-7.40625-4.867188-10.132812-3.523437-3.488281-8.375-5.296875-13.324218-4.964844-9.210938 1.210937-16.027344 9.175781-15.800782 18.464844v308.660156c0 2.933594-1.511718 5.664063-3.996093 7.222656-2.488281 1.558594-5.601563 1.734375-8.242188.457031-14.84375-7.035156-31.074219-10.648437-47.496093-10.582031zm0 0" />
  <path
     id="path22"
     d="m366.953125 426.667969c-4.710937 0-8.53125-3.820313-8.53125-8.535157v-8.53125c0-4.714843 3.820313-8.535156 8.53125-8.535156 4.714844 0 8.535156 3.820313 8.535156 8.535156v8.53125c0 4.714844-3.820312 8.535157-8.535156 8.535157zm0 0" />
  <path
     id="path24"
     d="m273.066406 102.398438h-256c-9.421875-.007813-17.0546872-7.644532-17.066406-17.066407v-42.664062c.0117188-9.421875 7.644531-17.058594 17.066406-17.066407h256c9.421875.007813 17.054688 7.644532 17.066406 17.066407v42.664062c-.011718 9.421875-7.644531 17.058594-17.066406 17.066407zm-256-59.730469v42.664062h256.011719l-.011719-42.664062zm0 0" />
  <path
     id="path26"
     d="m273.066406 204.800781h-256c-9.421875-.011719-17.0546872-7.644531-17.066406-17.066406v-42.667969c.0117188-9.421875 7.644531-17.054687 17.066406-17.066406h256c9.421875.011719 17.054688 7.644531 17.066406 17.066406v42.667969c-.011718 9.421875-7.644531 17.054687-17.066406 17.066406zm-256-59.734375v42.667969h256.011719l-.011719-42.667969zm0 0" />
  <path
     id="path28"
     d="m273.066406 307.199219h-256c-9.421875-.011719-17.0546872-7.644531-17.066406-17.066407v-42.664062c.0117188-9.421875 7.644531-17.058594 17.066406-17.070312h256c9.421875.011718 17.054688 7.648437 17.066406 17.070312v42.664062c-.011718 9.421876-7.644531 17.054688-17.066406 17.066407zm-256-59.730469v42.664062h256.011719l-.011719-42.664062zm0 0" />
</svg>
