<?xml version="1.0" encoding="UTF-8" standalone="no"?>
<svg
   xmlns:dc="http://purl.org/dc/elements/1.1/"
   xmlns:cc="http://creativecommons.org/ns#"
   xmlns:rdf="http://www.w3.org/1999/02/22-rdf-syntax-ns#"
   xmlns:svg="http://www.w3.org/2000/svg"
   xmlns="http://www.w3.org/2000/svg"
   version="1.1"
   width="16"
   viewBox="0 0 512 512"
   height="16"
   enable-background="new 0 0 512 512"
   id="Capa_1">
  <metadata
     id="metadata23">
    <rdf:RDF>
      <cc:Work
         rdf:about="">
        <dc:format>image/svg+xml</dc:format>
        <dc:type
           rdf:resource="http://purl.org/dc/dcmitype/StillImage" />
      </cc:Work>
    </rdf:RDF>
  </metadata>
  <defs
     id="defs21" />
  <g
     id="g16">
    <circle
       id="circle2"
       r="256"
       fill="#ff6b6b"
       cy="256"
       cx="256" />
    <path
       id="path4"
       fill="#ff1f3d"
       d="m512 256h-512c0 141.385 114.615 256 256 256s256-114.615 256-256z" />
    <g
       id="g10">
      <g
         id="g8">
        <path
           id="path6"
           fill="#f9f9f9"
           d="m185.999 401c-2.333 0-4.673-.543-6.827-1.645-5.016-2.564-8.172-7.722-8.172-13.355v-260c0-5.633 3.156-10.791 8.171-13.355s11.044-2.103 15.611 1.195l180 130c3.905 2.82 6.218 7.344 6.218 12.16s-2.313 9.34-6.218 12.16l-180 130c-2.605 1.882-5.686 2.84-8.783 2.84z" />
      </g>
    </g>
    <g
       id="g14">
      <path
         id="path12"
         fill="#e2dff4"
         d="m171 256v130c0 5.633 3.156 10.791 8.171 13.355 2.154 1.102 4.495 1.645 6.827 1.645 3.097 0 6.179-.958 8.784-2.84l180-130c3.904-2.82 6.218-7.344 6.218-12.16z" />
    </g>
  </g>
</svg>
